<svg xmlns="http://www.w3.org/2000/svg" viewBox="0 0 800 480" role="img" aria-label="Šema organa u grudnom i trbušnom delu (pojednostavljeno)">
  <defs>
    <style>
      .bg{fill:#0b1220}
      .body{fill:#111a2e;stroke:#9fb0d0;stroke-width:4}
      .heart{fill:#fb7185;opacity:.9}
      .lung{fill:#5eead4;opacity:.25;stroke:#5eead4;stroke-width:3}
      .liver{fill:#f59e0b;opacity:.7}
      .stomach{fill:#a78bfa;opacity:.7}
      .label{font: 18px system-ui, -apple-system, Segoe UI, Roboto, Arial; fill:#e7eefc}
      .muted{fill:#9fb0d0}
    </style>
  </defs>
  <rect class="bg" x="0" y="0" width="800" height="480" rx="24" />

  <!-- Torso outline -->
  <path class="body" d="M350 70c-55 0-95 35-110 90-10 36-10 90 0 155 10 65 30 120 110 120s100-55 110-120c10-65 10-119 0-155-15-55-55-90-110-90z"/>

  <!-- Lungs -->
  <path class="lung" d="M300 150c-35 10-55 45-55 90 0 55 20 95 55 105 25 7 45-10 45-40V180c0-25-15-37-45-30z"/>
  <path class="lung" d="M400 150c35 10 55 45 55 90 0 55-20 95-55 105-25 7-45-10-45-40V180c0-25 15-37 45-30z"/>

  <!-- Heart -->
  <path class="heart" d="M350 250c-18-25-55-20-55 10 0 35 55 70 55 70s55-35 55-70c0-30-37-35-55-10z"/>

  <!-- Liver & stomach -->
  <path class="liver" d="M420 310c60 0 95 22 95 55 0 18-10 32-30 40-25 10-60 12-100 5-25-5-40-18-40-36 0-30 28-64 75-64z"/>
  <path class="stomach" d="M310 310c-40 0-70 22-70 55 0 22 14 38 38 48 28 12 62 10 90-4 15-8 22-18 22-30 0-28-30-69-80-69z"/>

  <text class="label" x="40" y="60">Šema organa (pojednostavljeno)</text>
  <text class="label muted" x="40" y="88">Za pitanja: srce / pluća / jetra / želudac</text>
</svg>
